# xmcd
#
# Track frame offsets: 
#        150
#        10335
#        22257
#        36215
#        47182
#        65230
#        77315
#        90265
#        104467
#        125010
#        136035
#        147687
#
# Disc length: 2150 seconds
#
# Revision: 0
# Processed by: cddbd v1.4PL0 Copyright (c) Steve Scherf et al.
# Submitted via: ExactAudioCopy v0.90b4
#
DISCID=a608640c
DTITLE=Country Gentlemen - Folk Session Inside
DYEAR=1900
DGENRE=Bluegrass
TTITLE0=Bluebirds Are Singing For Me
TTITLE1=Sad And Lonesome Day
TTITLE2=The Girl Behind The Bar
TTITLE3=Can't You Hear me Calling
TTITLE4=The School House Fire
TTITLE5=Night Walk
TTITLE6=Aunt Dinah's Quilting Party
TTITLE7=The Galveston Flood
TTITLE8=The Young Fisherwoman
TTITLE9=This Morning At Dawn
TTITLE10=I Am Weary
TTITLE11=Heartaches
EXTD=
EXTT0=
EXTT1=
EXTT2=
EXTT3=
EXTT4=
EXTT5=
EXTT6=
EXTT7=
EXTT8=
EXTT9=
EXTT10=
EXTT11=
PLAYORDER=
